<svg xmlns="http://www.w3.org/2000/svg" width="16.006" height="15.245" viewBox="0 0 16.006 15.245">
  <defs>
    <style>
      .cls-1 {
        fill: #cbf1f9;
      }

      .cls-2 {
        fill: #00b8e3;
      }
    </style>
  </defs>
  <g id="Group_179" data-name="Group 179" transform="translate(-43.995 -1199)">
    <path id="Star_Filled_Icon" data-name="Star Filled Icon" class="cls-1" d="M3.686,15a1.034,1.034,0,0,1-.6-.191A.991.991,0,0,1,2.7,13.746L3.867,9.5.379,6.741a.987.987,0,0,1-.33-1.085,1.013,1.013,0,0,1,.914-.689l4.484-.228,1.6-4.1a1.023,1.023,0,0,1,1.9,0l1.608,4.1,4.483.228a1.014,1.014,0,0,1,.914.689.988.988,0,0,1-.328,1.085L12.14,9.5l1.16,4.242a.99.99,0,0,1-.383,1.067,1.032,1.032,0,0,1-1.15.03L8,12.439l-3.766,2.4A1.023,1.023,0,0,1,3.686,15Z" transform="translate(44 1199.004)"/>
    <path id="Star_Filled_Icon-2" data-name="Star Filled Icon" class="cls-2" d="M3.686,15.24A1.9,1.9,0,0,1,2.863,15a.9.9,0,0,1-.305-1.024L3.686,9.528.421,6.825A1.164,1.164,0,0,1,.029,5.647,1.052,1.052,0,0,1,.944,4.92l4.492-.276L7.049.458C7.2.07,7.713,0,8,.011H8s0-.13-.1,12.473L4.346,15a1.539,1.539,0,0,1-.66.24Z" transform="translate(44 1199.004)"/>
  </g>
</svg>
