<svg xmlns="http://www.w3.org/2000/svg" width="16.002" height="15.005" viewBox="0 0 16.002 15.005">
  <defs>
    <style>
      .cls-1 {
        fill: #cbf1f9;
      }
    </style>
  </defs>
  <path id="Star_Filled_Icon" data-name="Star Filled Icon" class="cls-1" d="M3.686,15a1.034,1.034,0,0,1-.6-.191A.991.991,0,0,1,2.7,13.746L3.867,9.5.379,6.741a.987.987,0,0,1-.33-1.085,1.013,1.013,0,0,1,.914-.689l4.484-.228,1.6-4.1a1.023,1.023,0,0,1,1.9,0l1.608,4.1,4.483.228a1.014,1.014,0,0,1,.914.689.988.988,0,0,1-.328,1.085L12.14,9.5l1.16,4.242a.99.99,0,0,1-.383,1.067,1.032,1.032,0,0,1-1.15.03L8,12.439l-3.766,2.4A1.023,1.023,0,0,1,3.686,15Z" transform="translate(0 0.005)"/>
</svg>
