<svg xmlns="http://www.w3.org/2000/svg" width="131" height="41" viewBox="0 0 131 41"><g transform="translate(-351 -363)"><g transform="translate(351 363)"><path d="M20.5,0A20.5,20.5,0,1,0,41,20.5,20.521,20.521,0,0,0,20.5,0Zm0,37.735A17.237,17.237,0,1,1,37.735,20.5,17.255,17.255,0,0,1,20.5,37.735Z" transform="translate(-0.001)" fill="#00b8e3"/><path d="M23.285,14.4V7.813A2.052,2.052,0,0,0,21.232,5.76h-4.44A2.052,2.052,0,0,0,14.74,7.813V14.4H8.15A2.052,2.052,0,0,0,6.1,16.453v4.534A2.052,2.052,0,0,0,8.15,23.04h6.588v6.586a2.052,2.052,0,0,0,2.051,2.053h4.442a2.053,2.053,0,0,0,2.051-2.053V23.04H29.87a2.053,2.053,0,0,0,2.053-2.053V16.453A2.052,2.052,0,0,0,29.87,14.4Z" transform="translate(1.874 1.771)" fill="#00b8e3"/></g><text transform="translate(398 379)" fill="#00b8e3" font-size="13" font-family="Nunito-ExtraBold, Nunito" font-weight="800" letter-spacing="0.05em"><tspan x="0" y="0">МЕДИЦИНА</tspan></text><text transform="translate(398 397)" fill="#00b8e3" font-size="13" font-family="Nunito-ExtraBold, Nunito" font-weight="800" letter-spacing="0.05em"><tspan x="0" y="0">ON-LINE</tspan></text></g></svg>